<svg width="17" height="16" viewBox="0 0 17 16" fill="none" xmlns="http://www.w3.org/2000/svg">
<g clip-path="url(#clip0_2492_21835)">
<path d="M8.50033 15.3337C12.5437 15.3337 15.8337 12.044 15.8337 8.00033C15.8337 7.30238 15.7362 6.61458 15.5433 5.95588C15.4483 5.63197 15.1101 5.44592 14.7853 5.54096C14.461 5.6357 14.2756 5.97512 14.3703 6.29903C14.5301 6.84629 14.6114 7.4189 14.6114 8.00033C14.6114 11.3699 11.8699 14.1114 8.50033 14.1114C5.13071 14.1114 2.38921 11.3699 2.38921 8.00033C2.38921 4.63071 5.13071 1.88921 8.50033 1.88921C9.72493 1.88921 10.9031 2.24729 11.9075 2.92449C12.1871 3.11323 12.5673 3.03908 12.7557 2.75948C12.9443 2.47959 12.8708 2.09973 12.5909 1.91115C11.3839 1.09728 9.96947 0.666992 8.50033 0.666992C4.45694 0.666992 1.16699 3.95664 1.16699 8.00033C1.16699 12.044 4.45694 15.3337 8.50033 15.3337Z" fill="#FF3F3A"/>
<path d="M15.3622 1.52885L8.5002 8.3905L6.30489 6.19552C6.04447 5.93526 5.6226 5.93526 5.36218 6.19552C5.10193 6.45593 5.10193 6.87781 5.36218 7.13822L8.02885 9.80489C8.15922 9.93526 8.32947 10.0002 8.5002 10.0002C8.67094 10.0002 8.84119 9.93526 8.97156 9.80489L16.3049 2.47156C16.5651 2.21114 16.5651 1.78927 16.3049 1.52885C16.0445 1.2686 15.6226 1.2686 15.3622 1.52885Z" fill="#FF3F3A"/>
</g>
<defs>
<clipPath id="clip0_2492_21835">
<rect width="16" height="16" fill="white" transform="translate(0.5)"/>
</clipPath>
</defs>
</svg>
